<?xml version="1.0" ?><!DOCTYPE svg  PUBLIC '-//W3C//DTD SVG 1.1//EN'  'http://www.w3.org/Graphics/SVG/1.1/DTD/svg11.dtd'><svg enable-background="new 0 0 64 64" height="64px" id="Layer_1" version="1.1" viewBox="0 0 64 64" width="64px" xml:space="preserve" xmlns="http://www.w3.org/2000/svg" xmlns:xlink="http://www.w3.org/1999/xlink"><g><path d="M55.1,38.5c0,17.7-10.4,24.9-23.1,24.9c-12.8,0-23.1-7.2-23.1-24.9c0-17.7,10.4-38,23.1-38   C44.8,0.6,55.1,20.8,55.1,38.5z" fill="#5DD844"/><path d="M32,0.6c12.8,0,23.1,20.3,23.1,38c0,17.7-10.4,24.9-23.1,24.9" fill="#4DC430"/><path d="M49.9,37c0,13.7-8,19.2-17.9,19.2S14.1,50.7,14.1,37S22.1,7.7,32,7.7S49.9,23.4,49.9,37z" fill="#DCEA5C"/><path d="M32,7.7c9.9,0,17.9,15.7,17.9,29.3s-8,19.2-17.9,19.2" fill="#C8E54E"/><circle cx="32" cy="39" fill="#F4F995" r="12"/><path d="M32,27c6.6,0,12,5.4,12,12c0,6.6-5.4,12-12,12" fill="#EAEA86"/><circle cx="32" cy="39" fill="#664823" r="9.2"/><path d="M32,29.8c5.1,0,9.2,4.1,9.2,9.2s-4.1,9.2-9.2,9.2" fill="#563818"/><ellipse cx="27.9" cy="35.3" fill="#82603F" rx="3.4" ry="2.2" transform="matrix(0.7077 -0.7065 0.7065 0.7077 -16.7617 30.0522)"/></g></svg>